<svg width="112" height="41" viewBox="0 0 112 41" fill="none" xmlns="http://www.w3.org/2000/svg">
<g clip-path="url(#clip0_1612_5666)">
<path fill-rule="evenodd" clip-rule="evenodd" d="M46.5559 31.1748H111.785V38.7559H46.5559V31.1748ZM51.0272 36.1455C51.1674 36.3819 51.2956 36.6162 51.4118 36.8486H52.5357C52.4035 36.5962 52.2232 36.2857 51.9948 35.9171C51.7664 35.5445 51.4839 35.1398 51.1474 34.7031L52.4696 32.6837H51.3998L50.6065 33.9819L49.7951 32.6837H48.6593L49.9995 34.6911C49.711 35.0917 49.4486 35.4703 49.2122 35.8269C48.9798 36.1835 48.7755 36.5241 48.5992 36.8486H49.6689C49.705 36.7725 49.7611 36.6683 49.8372 36.5361C49.9133 36.4039 49.9935 36.2657 50.0776 36.1214C50.1658 35.9772 50.2519 35.841 50.336 35.7127C50.4242 35.5845 50.4963 35.4844 50.5524 35.4123C50.7327 35.6607 50.891 35.9051 51.0272 36.1455ZM58.8445 35.3161C58.7964 35.1518 58.7723 34.9675 58.7723 34.7632C58.7723 34.5628 58.7964 34.3805 58.8445 34.2163C58.8966 34.048 58.9687 33.9058 59.0608 33.7896C59.157 33.6694 59.2732 33.5772 59.4094 33.5131C59.5456 33.445 59.7019 33.4109 59.8782 33.4109C60.0505 33.4109 60.2047 33.443 60.3409 33.5071C60.4812 33.5712 60.5974 33.6634 60.6895 33.7835C60.7857 33.8997 60.8578 34.042 60.9059 34.2103C60.958 34.3745 60.984 34.5588 60.984 34.7632C60.984 34.9675 60.958 35.1518 60.9059 35.3161C60.8578 35.4804 60.7857 35.6226 60.6895 35.7428C60.5974 35.859 60.4812 35.9491 60.3409 36.0132C60.2047 36.0774 60.0505 36.1094 59.8782 36.1094C59.7019 36.1094 59.5456 36.0774 59.4094 36.0132C59.2732 35.9491 59.157 35.859 59.0608 35.7428C58.9687 35.6226 58.8966 35.4804 58.8445 35.3161ZM61.7893 35.7067C61.8975 35.4343 61.9516 35.1198 61.9516 34.7632C61.9516 34.4066 61.8975 34.0941 61.7893 33.8256C61.6812 33.5532 61.5329 33.3248 61.3446 33.1405C61.1563 32.9562 60.9359 32.8179 60.6835 32.7258C60.4311 32.6336 60.1626 32.5876 59.8782 32.5876C59.6017 32.5876 59.3373 32.6336 59.0849 32.7258C58.8365 32.8179 58.6161 32.9562 58.4238 33.1405C58.2355 33.3248 58.0852 33.5532 57.973 33.8256C57.8608 34.0941 57.8047 34.4066 57.8047 34.7632C57.8047 35.1198 57.8588 35.4343 57.967 35.7067C58.0752 35.9752 58.2234 36.2016 58.4117 36.3859C58.6001 36.5662 58.8204 36.7024 59.0728 36.7945C59.3253 36.8867 59.5937 36.9328 59.8782 36.9328C60.1707 36.9328 60.4431 36.8867 60.6955 36.7945C60.952 36.7024 61.1723 36.5662 61.3566 36.3859C61.5409 36.2016 61.6852 35.9752 61.7893 35.7067ZM69.6446 34.2884C69.6646 34.0159 69.6807 33.7455 69.6927 33.477H70.7144V36.8486H71.6519V32.6837H68.8092C68.8092 33.2567 68.7872 33.7755 68.7431 34.2403C68.703 34.7011 68.6329 35.0777 68.5328 35.3702C68.4526 35.6066 68.3344 35.7829 68.1782 35.8991C68.0219 36.0112 67.7995 36.0834 67.5111 36.1154L67.6132 36.9328C67.9378 36.9208 68.2122 36.8647 68.4366 36.7645C68.661 36.6643 68.8473 36.5301 68.9955 36.3618C69.1478 36.1935 69.266 35.9992 69.3501 35.7789C69.4383 35.5585 69.5044 35.3221 69.5484 35.0697C69.5965 34.8173 69.6286 34.5568 69.6446 34.2884ZM77.9928 36.0553H77.3918V37.9605H78.2933V36.8486H81.1901V37.9605H82.0916V36.0553H81.3764V32.6837H78.6239V32.846C78.6239 33.1505 78.6179 33.441 78.6058 33.7174C78.5978 33.9939 78.5718 34.2623 78.5277 34.5228C78.4876 34.7832 78.4255 35.0396 78.3414 35.2921C78.2573 35.5445 78.1411 35.7989 77.9928 36.0553ZM79.4653 34.1441C79.4853 33.9158 79.4993 33.6934 79.5073 33.477H80.4629V36.0553H78.9664C79.0666 35.875 79.1487 35.6807 79.2128 35.4724C79.281 35.26 79.3351 35.0436 79.3751 34.8233C79.4152 34.5989 79.4452 34.3725 79.4653 34.1441ZM87.8327 32.6837V36.8486H88.62C88.8885 36.3718 89.179 35.9011 89.4915 35.4363C89.804 34.9715 90.1366 34.5328 90.4891 34.1201V36.8486H91.4147V32.6837H90.6514C90.5192 32.8159 90.3729 32.9782 90.2127 33.1705C90.0524 33.3629 89.8881 33.5692 89.7199 33.7896C89.5556 34.0059 89.3913 34.2323 89.227 34.4687C89.0628 34.7011 88.9085 34.9254 88.7643 35.1418V32.6837H87.8327ZM100.964 32.6837H100.026V34.2764H98.4515V32.6837H97.5139V36.8486H98.4515V35.0817H100.026V36.8486H100.964V32.6837ZM107.066 36.8486H108.004V33.477H109.909V32.6837H107.066V36.8486Z" fill="white"/>
<path d="M65.9164 14.9004C65.9164 7.50387 61.9241 1.10326 52.5657 1.10326C50.1345 1.13755 47.7342 1.65409 45.504 2.62292L46.6846 7.09605C48.3989 6.39281 50.232 6.02415 52.0849 6.00997C56.5624 6.00997 59.0393 8.81748 59.4429 12.3677H47.981V17.0898H59.3699C58.9406 20.9533 56.0816 23.7093 51.5312 23.7093C49.7126 23.7094 47.9086 23.3852 46.2038 22.752L45.1692 27.3754C47.3495 28.2254 49.6719 28.6523 52.012 28.6332C59.8507 28.6332 65.9164 23.8639 65.9164 14.8961M76.567 13.8229L85.8567 2.03051H78.5588L71.2052 13.0888H70.6901V1.99187H64.7316V3.00498C67.8783 5.55493 69.282 10.5131 69.282 14.9133C69.282 19.7213 67.5649 24.4563 64.7316 26.7486V28.6332H70.6901V17.489H71.8363C75.0902 17.489 76.3094 19.7814 77.198 22.7778C77.8248 24.7396 78.3442 26.8087 79.2672 28.6203H85.7407C84.4829 25.9588 83.5943 23.1126 82.6714 20.2622C81.5595 17.0468 80.0098 14.6815 76.567 13.8229ZM112 28.586L110.485 1.99187H102.599L99.7483 10.8308C98.8897 13.7886 97.9753 17.3044 97.2327 20.3738H97.1253C96.5329 17.2658 95.7173 13.9345 94.8673 10.8695L92.2959 1.99187H89.7202L83.839 9.50004L83.4698 15.2696C84.9122 16.4544 85.8352 18.193 86.5392 20.2278C87.1316 22.0008 87.6854 23.778 88.3508 25.478L88.6856 18.4892C88.8702 15.158 89.0162 11.054 89.1664 7.46524H89.2394C89.8662 10.9424 90.7934 14.7158 91.6434 17.8582L94.4895 28.161H99.1644L102.418 17.768C103.457 14.66 104.565 10.8523 105.38 7.46524H105.492C105.492 11.3502 105.599 15.1923 105.711 18.412L106.119 28.586H112Z" fill="white"/>
<path d="M14.5541 9.79202C17.2962 7.92936 20.6184 6.81177 24.2042 6.81177C31.1122 6.81177 36.9655 10.8564 39.8131 16.7637C38.7584 10.3242 34.5925 4.8959 28.9501 2.07531C28.8974 2.07531 28.8974 2.07531 28.8447 2.07531C22.9386 2.07531 17.7181 5.16199 14.5541 9.79202Z" fill="white"/>
<path d="M2.79483 9.8454C1.00192 12.8789 0 16.4445 0 20.1698C0 30.1749 7.22437 38.477 16.6108 40.0736C10.8102 37.253 6.74978 31.2393 6.74978 24.3209C6.74978 24.0016 6.74978 23.7355 6.74978 23.4162C4.11315 20.3295 2.5839 16.3913 2.5839 12.0274C2.68936 11.2823 2.7421 10.5905 2.79483 9.8454Z" fill="white"/>
<path d="M7.48816 19.7441C8.12095 17.3493 9.28107 15.2205 10.7576 13.3579C12.3396 6.75877 17.5074 1.64978 24.0989 0.372531C22.8334 0.106437 21.4623 0 20.0913 0C14.7653 0 10.0193 2.07553 6.4335 5.4283C5.80071 7.29095 5.43158 9.31326 5.43158 11.3356C5.37885 14.369 6.11711 17.1896 7.48816 19.7441Z" fill="white"/>
<path d="M38.5475 21.607C37.3873 14.5289 31.4813 9.47315 24.6788 9.0474C29.8993 10.8036 33.6961 15.7529 33.6961 21.607C33.6961 28.898 27.79 34.8052 20.6184 34.8052C16.1888 34.8052 12.3921 32.6233 10.0191 29.3237C12.4448 35.9228 19.1946 40.0207 26.3662 38.7966C34.3816 37.4662 39.813 29.8027 38.5475 21.607Z" fill="white"/>
<path d="M20.5659 31.3992C25.8954 31.3992 30.2159 27.0389 30.2159 21.6602C30.2159 16.2815 25.8954 11.9212 20.5659 11.9212C15.2363 11.9212 10.9158 16.2815 10.9158 21.6602C10.9158 27.0389 15.2363 31.3992 20.5659 31.3992Z" fill="white"/>
</g>
<defs>
<clipPath id="clip0_1612_5666">
<rect width="112" height="40.0736" fill="white"/>
</clipPath>
</defs>
</svg>
